{"title":"The Mechanic 2010 BRRip XviD LTRG","uid":6278806,"size":747170825,"categoryP":"video","categoryS":"movies","magnet":"?xt=urn:btih:77bf83d415a36c381429b9ce9053b312a5000264&amp;dn=The+Mechanic+2010+BRRip+XviD+LTRG&amp;tr=udp%3A%2F%2Ftracker.openbittorrent.com%3A80&amp;tr=udp%3A%2F%2Fopen.demonii.com%3A1337&amp;tr=udp%3A%2F%2Ftracker.coppersurfer.tk%3A6969&amp;tr=udp%3A%2F%2Fexodus.desync.com%3A6969","seeders":0,"leechers":3,"uploader":"CODYBOSS1969","files":7,"time":1301359905,"description":"General\nComplete name                    : The Mechanic 2010 BRRip XviD LTRG.avi\nFormat                           : AVI\nFormat/Info                      : Audio Video Interleave\nFile size                        : 700 MiB\nDuration                         : 1h 32mn\nOverall bit rate                 : 1 060 Kbps\nWriting application              : VirtualDubMod 1.5.10.1 (build 2366/release)\nWriting library                  : VirtualDubMod build 2366/release\n\nVideo\nID                               : 0\nFormat                           : MPEG-4 Visual\nFormat profile                   : Advanced Simple@L5\nFormat settings, BVOP            : Yes\nFormat settings, QPel            : No\nFormat settings, GMC             : No warppoints\nFormat settings, Matrix          : Default (H.263)\nCodec ID                         : XVID\nCodec ID/Hint                    : XviD\nDuration                         : 1h 32mn\nBit rate                         : 923 Kbps\nWidth                            : 640 pixels\nHeight                           : 352 pixels\nDisplay aspect ratio             : 16:9\nFrame rate                       : 23.976 fps\nColor space                      : YUV\nChroma subsampling               : 4:2:0\nBit depth                        : 8 bits\nScan type                        : Progressive\nCompression mode                 : Lossy\nBits/(Pixel*Frame)               : 0.171\nStream size                      : 609 MiB (87%)\nWriting library                  : XviD 1.2.1 (UTC 2008-12-04)\n\nAudio\nID                               : 1\nFormat                           : MPEG Audio\nFormat version                   : Version 1\nFormat profile                   : Layer 3\nMode                             : Joint stereo\nMode extension                   : MS Stereo\nCodec ID                         : 55\nCodec ID/Hint                    : MP3\nDuration                         : 1h 32mn\nBit rate mode                    : Constant\nBit rate                         : 128 Kbps\nChannel(s)                       : 2 channels\nSampling rate                    : 48.0 KHz\nCompression mode                 : Lossy\nStream size                      : 84.5 MiB (12%)\nAlignment                        : Aligned on interleaves\nInterleave, duration             : 42 ms (1.00 video frame)\nInterleave, preload duration     : 504 ms\n\n\n\n\nIMDB link                          &lt;a href=&quot; http://www.imdb.com/title/tt0472399/&quot; rel=&quot;nofollow&quot; target=&quot;_NEW&quot;&gt; http://www.imdb.com/title/tt0472399/&lt;/a&gt;\n\n\n\nSubtitles included               : Romanian\n\n\n\nPlease seed at least 1,5:1 . This way this torrent has a chance to survive !!\n\n\n\nThanks. ENJOY !!!\n","torrent":{"xt":"urn:btih:77bf83d415a36c381429b9ce9053b312a5000264","amp;dn":"The+Mechanic+2010+BRRip+XviD+LTRG","amp;tr":["udp%3A%2F%2Ftracker.openbittorrent.com%3A80","udp%3A%2F%2Fopen.demonii.com%3A1337","udp%3A%2F%2Ftracker.coppersurfer.tk%3A6969","udp%3A%2F%2Fexodus.desync.com%3A6969"],"infoHash":"77bf83d415a36c381429b9ce9053b312a5000264","infoHashBuffer":{"type":"Buffer","data":[119,191,131,212,21,163,108,56,20,41,185,206,144,83,179,18,165,0,2,100]},"announce":[],"urlList":[]}}